<?xml version="1.0" standalone="no"?>
<!DOCTYPE svg PUBLIC "-//W3C//DTD SVG 20010904//EN"
 "http://www.w3.org/TR/2001/REC-SVG-20010904/DTD/svg10.dtd">
<svg version="1.0" xmlns="http://www.w3.org/2000/svg"
 width="260.000000pt" height="260.000000pt" viewBox="0 0 260.000000 260.000000"
 preserveAspectRatio="xMidYMid meet">
<metadata>
Created by potrace 1.14, written by Peter Selinger 2001-2017
</metadata>
<g transform="translate(0.000000,260.000000) scale(0.100000,-0.100000)"
fill="#000000" stroke="none">
<path d="M1090 2435 c-85 -16 -230 -65 -303 -102 -148 -74 -317 -218 -416
-352 -296 -402 -295 -960 1 -1363 70 -96 232 -244 328 -302 93 -56 212 -106
327 -138 68 -19 104 -22 273 -22 169 0 205 3 273 22 115 32 234 82 327 138 96
58 258 206 328 302 297 403 297 961 0 1364 -70 96 -232 244 -328 302 -94 57
-214 107 -327 137 -103 28 -371 35 -483 14z m390 -56 c85 -13 208 -51 294 -92
l68 -32 -175 -117 -175 -118 -111 0 -111 0 0 184 c0 131 3 185 12 188 16 6
123 -1 198 -13z m-270 -204 l0 -215 135 0 135 0 0 -310 0 -310 -200 0 -200 0
0 140 0 140 -174 0 -174 0 -7 263 c-4 144 -5 282 -3 307 l3 45 85 43 c115 58
281 107 373 111 l27 1 0 -215z m844 -87 c56 -53 97 -100 93 -105 -5 -4 -60
-10 -123 -11 l-114 -4 0 -189 0 -189 -185 0 -185 0 2 197 3 198 174 117 174
117 30 -17 c17 -9 76 -60 131 -114z m-1388 -196 c-2 -1 -67 -1 -145 0 l-143 3
50 65 c27 36 89 103 138 149 l89 85 7 -150 c3 -82 5 -150 4 -152z m1582 -44
c78 -137 128 -291 139 -430 l6 -78 -212 0 -211 0 0 285 0 284 68 4 c37 2 90 4
118 5 l50 2 42 -72z m-1808 -213 l0 -195 95 0 95 0 0 -50 0 -50 -210 0 -210 0
0 44 c0 97 51 290 105 397 25 49 25 49 75 49 l50 0 0 -195z m1470 -200 l0 -95
-185 0 -185 0 0 95 0 95 185 0 185 0 0 -95z m-1000 -666 l0 -490 -22 7 c-139
42 -354 210 -468 364 -121 163 -210 403 -210 566 l0 44 350 0 350 0 0 -491z
m710 354 l0 -138 -137 -100 c-75 -55 -142 -104 -150 -108 -11 -7 -13 36 -13
238 l0 245 150 0 150 0 0 -137z m440 82 l0 -55 -160 0 -160 0 0 -38 c0 -31 -6
-43 -30 -60 l-30 -23 0 116 0 115 190 0 190 0 0 -55z m-320 -556 l0 -350 -42
-19 c-168 -74 -448 -93 -652 -45 l-76 18 0 138 0 139 175 0 175 0 0 83 0 82
56 40 c31 22 124 91 208 152 83 62 152 113 154 113 1 0 2 -158 2 -351z"/>
</g>
</svg>
